<svg version="1.2" xmlns="http://www.w3.org/2000/svg" viewBox="0 0 344 40" width="344" height="40"><defs><linearGradient id="P" gradientUnits="userSpaceOnUse"/><linearGradient id="g1" x1="59.9" y1="25.5" x2="85.7" y2="13.5" href="#P"><stop offset=".3" stop-color="#ffc200"/><stop offset=".4" stop-color="#fbb100"/><stop offset=".7" stop-color="#f39200"/></linearGradient><linearGradient id="g2" x1="98.2" y1="25.5" x2="124" y2="13.5" href="#P"><stop offset=".3" stop-color="#ffc200"/><stop offset=".4" stop-color="#fbb100"/><stop offset=".7" stop-color="#f39200"/></linearGradient></defs><style>.a{fill:#ffc200}.b{fill:url(#g1)}.c{fill:url(#g2)}</style><path  d="m175 6l0.9 6.6 1-3.8h1.6l1 3.8 0.9-6.5h2.2l-1.4 9.4h-2.2l-1.3-4.7-1.3 4.7h-2.2l-1.4-9.4z"/><path fill-rule="evenodd" d="m191 12.3l1.5 1.7q-0.4 0.4-0.9 0.7-0.4 0.3-0.9 0.5-0.6 0.2-1.1 0.3-0.5 0.1-1.1 0.1-1 0-1.9-0.3-0.8-0.4-1.5-1.1-0.7-0.7-1-1.6-0.4-0.9-0.3-1.9-0.1-0.9 0.2-1.8 0.4-0.9 1-1.6 0.7-0.7 1.5-1.1 0.9-0.3 1.9-0.3c2.6 0 4.6 1.7 4.6 5.6h-6.7q0.1 0.4 0.3 0.7 0.2 0.4 0.5 0.6 0.3 0.3 0.7 0.4 0.3 0.1 0.7 0.1 0.4 0 0.7-0.1 0.3 0 0.6-0.2 0.3-0.1 0.6-0.3 0.3-0.2 0.6-0.4zm-4.6-2.7h3.9q-0.1-0.3-0.3-0.7-0.1-0.3-0.4-0.5-0.3-0.2-0.6-0.4-0.3-0.1-0.7-0.1-0.3 0-0.7 0.1-0.3 0.2-0.5 0.4-0.3 0.2-0.5 0.5-0.2 0.4-0.2 0.7z"/><path fill-rule="evenodd" d="m203.5 10.8c0 2.8-1.7 4.8-4.3 4.8q-0.3 0-0.7-0.1-0.3 0-0.7-0.2-0.3-0.1-0.6-0.3-0.3-0.2-0.6-0.4v0.9h-2.1v-13.2h2.4v4.4q0.3-0.2 0.6-0.3 0.2-0.2 0.5-0.3 0.3-0.1 0.6-0.2 0.3 0 0.6 0c2.6 0 4.3 2 4.3 4.8zm-2.4 0c0.1-0.6-0.1-1.2-0.5-1.7-0.4-0.5-1-0.8-1.7-0.8-0.6 0-1.2 0.3-1.6 0.8-0.4 0.5-0.6 1.1-0.5 1.7-0.1 0.7 0.1 1.3 0.5 1.8 0.4 0.5 1 0.8 1.6 0.8 0.7 0 1.3-0.3 1.7-0.8 0.4-0.5 0.6-1.1 0.5-1.8z"/><path  d="m206.6 12.6q0.3 0.3 0.6 0.5 0.3 0.1 0.7 0.3 0.3 0.1 0.6 0.2 0.4 0 0.8 0c1.1 0 1.8-0.4 1.8-1 0-1.9-5.7-0.1-5.7-3.8 0-1.7 1.6-2.9 4-2.9q0.5 0 1 0.1 0.5 0.1 0.9 0.2 0.5 0.2 1 0.4 0.4 0.3 0.8 0.6l-1.4 1.6q-0.2-0.3-0.5-0.4-0.3-0.2-0.6-0.3-0.3-0.1-0.6-0.1-0.3-0.1-0.6-0.1c-0.9 0-1.6 0.4-1.6 0.9 0 1.7 5.8-0.1 5.8 3.8 0 1.8-1.8 3-4.3 3q-0.6 0-1.2-0.1-0.5-0.1-1.1-0.3-0.5-0.2-1-0.5-0.4-0.3-0.8-0.7z"/><path  d="m216.2 13.3h3v-5h-2.7v-2.3h5.2v7.3h2.3v2.2h-7.8zm2.8-10.3c0-0.4 0.1-0.7 0.4-1 0.3-0.3 0.6-0.4 1-0.4 0.4 0 0.8 0.1 1 0.4 0.3 0.3 0.5 0.6 0.5 1 0 0.4-0.2 0.8-0.5 1-0.2 0.3-0.6 0.5-1 0.5-0.4 0-0.7-0.2-1-0.5-0.3-0.2-0.4-0.6-0.4-1z"/><path  d="m234.5 15.5h-2.4q-0.7 0-1.3-0.2-0.7-0.2-1.2-0.7-0.5-0.4-0.8-1.1-0.3-0.6-0.3-1.3v-4h-2.6v-2.2h2.6v-2.8h2.5v2.8h3.4v2.2h-3.4v3.9q0 0.2 0.1 0.4 0.1 0.3 0.2 0.4 0.2 0.2 0.4 0.3 0.3 0.1 0.5 0.1h2.3z"/><path fill-rule="evenodd" d="m243.8 12.3l1.5 1.7q-0.4 0.4-0.9 0.7-0.4 0.3-0.9 0.5-0.5 0.2-1.1 0.3-0.5 0.1-1.1 0.1-1 0-1.9-0.3-0.9-0.4-1.5-1.1-0.7-0.7-1.1-1.6-0.3-0.9-0.3-1.9 0-0.9 0.3-1.8 0.3-0.9 1-1.6 0.6-0.7 1.5-1.1 0.9-0.3 1.9-0.3c2.6 0 4.5 1.8 4.5 5.6h-6.6q0.1 0.4 0.3 0.7 0.2 0.4 0.5 0.6 0.3 0.3 0.7 0.4 0.4 0.1 0.8 0.1 0.3 0 0.6-0.1 0.4 0 0.7-0.2 0.3-0.1 0.6-0.3 0.3-0.2 0.5-0.4zm-4.6-2.7h3.9q0-0.3-0.2-0.7-0.2-0.3-0.4-0.5-0.3-0.2-0.6-0.4-0.4-0.1-0.7-0.1-0.4 0-0.7 0.2-0.3 0.1-0.6 0.3-0.3 0.2-0.4 0.5-0.2 0.4-0.3 0.7z"/><path  d="m248.9 12.6q0.3 0.3 0.6 0.5 0.3 0.1 0.6 0.3 0.4 0.1 0.7 0.2 0.4 0 0.8 0c1 0 1.8-0.4 1.8-1 0-1.9-5.7-0.1-5.7-3.8 0-1.7 1.6-2.9 4-2.9q0.5 0 1 0.1 0.5 0.1 0.9 0.2 0.5 0.2 1 0.4 0.4 0.3 0.8 0.6l-1.4 1.6q-0.3-0.3-0.5-0.4-0.3-0.2-0.6-0.3-0.3-0.1-0.6-0.1-0.3-0.1-0.6-0.1c-0.9 0-1.6 0.4-1.6 0.9 0 1.7 5.8-0.1 5.8 3.8 0 1.8-1.8 3-4.3 3q-0.6 0-1.2-0.1-0.5-0.1-1.1-0.3-0.5-0.2-1-0.5-0.5-0.3-0.9-0.7z"/><path fill-rule="evenodd" d="m182.4 28.7c0 2.9-1.8 4.9-4.3 4.9q-0.3 0-0.6-0.1-0.3 0-0.6-0.1-0.3-0.1-0.6-0.3-0.2-0.2-0.5-0.4v4.5h-2.4v-13.2h2v0.9q0.3-0.3 0.6-0.4 0.3-0.2 0.7-0.4 0.3-0.1 0.7-0.2 0.3 0 0.7 0c2.5 0 4.3 2 4.3 4.8zm-2.5 0c0.2-0.6 0-1.2-0.4-1.7-0.4-0.5-1-0.8-1.7-0.8-0.6 0-1.2 0.3-1.6 0.8-0.4 0.5-0.6 1.1-0.5 1.7-0.1 0.6 0.1 1.3 0.5 1.8 0.4 0.5 1 0.7 1.6 0.7 0.7 0 1.3-0.2 1.7-0.7 0.4-0.5 0.6-1.2 0.4-1.8z"/><path  d="m188.4 27.7v3.6h2v2.1h-5.8v-2.1h1.4v-5.1h-1.4v-2.2h3.4v0.7q0.2-0.2 0.5-0.3 0.2-0.1 0.5-0.2 0.3-0.1 0.6-0.2 0.3 0 0.6 0h2.5v2.2h-2.7q-0.3 0-0.6 0.1-0.3 0.1-0.5 0.3-0.3 0.2-0.4 0.5-0.1 0.3-0.1 0.6z"/><path fill-rule="evenodd" d="m203.5 28.7c0.1 1.3-0.3 2.5-1.2 3.5-0.9 0.9-2.1 1.4-3.4 1.4-1.3 0-2.5-0.5-3.4-1.4-0.8-1-1.3-2.2-1.2-3.5-0.1-1.3 0.4-2.5 1.2-3.4 0.9-1 2.1-1.5 3.4-1.5 1.3 0 2.5 0.5 3.4 1.5 0.9 0.9 1.3 2.1 1.2 3.4zm-6.7 0c-0.1 0.6 0 1.3 0.4 1.8 0.5 0.5 1.1 0.7 1.7 0.7 0.6 0 1.2-0.2 1.7-0.7 0.4-0.5 0.5-1.2 0.4-1.8 0.1-0.6 0-1.2-0.4-1.7-0.5-0.5-1.1-0.8-1.7-0.8-0.6 0-1.2 0.3-1.7 0.8-0.4 0.5-0.5 1.1-0.4 1.7z"/><path  d="m210.2 23.6v0.4h3.2v2.2h-3.2v5h2v2.2h-6.1v-2.2h1.7v-5h-2.6v-2.2h2.6v-0.5q0-0.7 0.3-1.3 0.3-0.7 0.8-1.1 0.5-0.5 1.1-0.7 0.6-0.2 1.3-0.2h2.3v2.2h-2.1q-0.3 0-0.5 0.1-0.2 0.1-0.4 0.2-0.2 0.2-0.3 0.4-0.1 0.3-0.1 0.5z"/><path  d="m216.2 31.3l3-0.1v-5h-2.7v-2.2h5.2v7.2h2.3v2.2h-7.8zm2.8-10.2c-0.1-0.6 0.3-1.1 0.8-1.4 0.6-0.2 1.2-0.1 1.6 0.3 0.4 0.5 0.6 1.1 0.3 1.6-0.2 0.6-0.7 0.9-1.3 0.9q-0.3 0-0.6-0.1-0.2-0.1-0.4-0.3-0.2-0.2-0.3-0.4-0.2-0.3-0.1-0.6z"/><path  d="m227.8 30.6q0.2 0.3 0.6 0.5 0.3 0.1 0.6 0.3 0.3 0.1 0.7 0.2 0.4 0 0.7 0c1.1 0 1.9-0.4 1.9-1.1 0-1.8-5.8-0.1-5.8-3.7 0-1.7 1.7-2.9 4-2.9q0.5 0 1 0 0.5 0.1 1 0.3 0.5 0.1 0.9 0.4 0.5 0.2 0.8 0.5l-1.4 1.6q-0.2-0.2-0.5-0.4-0.2-0.1-0.5-0.2-0.3-0.1-0.7-0.2-0.3 0-0.6 0c-0.9 0-1.5 0.3-1.5 0.9 0 1.6 5.8-0.1 5.8 3.7 0 1.8-1.9 3.1-4.4 3.1q-0.6 0-1.1-0.1-0.6-0.1-1.1-0.3-0.6-0.2-1-0.5-0.5-0.3-0.9-0.7z"/><path  d="m238.4 30.6q0.2 0.3 0.5 0.4 0.3 0.2 0.7 0.4 0.3 0.1 0.7 0.2 0.3 0 0.7 0c1.1 0 1.9-0.4 1.9-1.1 0-1.8-5.8-0.1-5.8-3.7 0-1.7 1.7-2.9 4-2.9q0.5 0 1 0 0.5 0.1 1 0.3 0.4 0.1 0.9 0.4 0.4 0.2 0.8 0.5l-1.4 1.6q-0.2-0.2-0.5-0.4-0.3-0.1-0.6-0.2-0.3-0.1-0.6-0.2-0.3 0-0.6 0c-0.9 0-1.5 0.3-1.5 0.9 0 1.6 5.7-0.1 5.7 3.7 0 1.8-1.8 3.1-4.3 3.1q-0.6 0-1.2-0.1-0.5-0.1-1.1-0.3-0.5-0.2-1-0.5-0.4-0.3-0.8-0.7z"/><path  d="m248 31.3l3-0.1v-5h-2.8v-2.2h5.2v7.2h2.4v2.2h-7.8zm2.7-10.2c0-0.6 0.3-1.1 0.9-1.4 0.5-0.2 1.1-0.1 1.6 0.3 0.4 0.4 0.5 1.1 0.3 1.6-0.2 0.6-0.8 0.9-1.4 0.9q-0.3 0-0.5-0.1-0.3-0.1-0.5-0.3-0.2-0.2-0.3-0.4-0.1-0.3-0.1-0.6z"/><path fill-rule="evenodd" d="m266.9 28.7c0.1 1.3-0.3 2.5-1.2 3.5-0.9 0.9-2.1 1.4-3.4 1.4-1.3 0-2.5-0.5-3.3-1.4-0.9-1-1.4-2.2-1.3-3.5-0.1-1.3 0.4-2.5 1.3-3.4 0.8-1 2-1.5 3.3-1.5 1.3 0 2.5 0.5 3.4 1.5 0.9 0.9 1.3 2.1 1.2 3.4zm-6.7 0c-0.1 0.6 0.1 1.3 0.5 1.8 0.4 0.5 1 0.7 1.6 0.7 0.7 0 1.3-0.2 1.7-0.7 0.4-0.5 0.6-1.2 0.4-1.8 0.2-0.6 0-1.2-0.4-1.7-0.4-0.5-1-0.8-1.7-0.8-0.6 0-1.2 0.3-1.6 0.8-0.4 0.5-0.6 1.1-0.5 1.7z"/><path  d="m277 27.7v5.7h-2.4v-5.5c0-0.5-0.2-1-0.5-1.3-0.3-0.4-0.7-0.6-1.2-0.6-0.5 0-0.9 0.2-1.3 0.6-0.3 0.3-0.5 0.8-0.4 1.3v5.5h-2.4v-9.4h2v0.8q0.2-0.2 0.5-0.4 0.3-0.2 0.6-0.3 0.4-0.1 0.7-0.2 0.3 0 0.7 0 0.7-0.1 1.4 0.2 0.7 0.3 1.3 0.9 0.5 0.5 0.8 1.2 0.2 0.7 0.2 1.5z"/><path fill-rule="evenodd" d="m287.8 24v9.4h-2v-0.8q-0.3 0.2-0.6 0.4-0.3 0.2-0.6 0.3-0.4 0.2-0.7 0.2-0.4 0.1-0.8 0.1c-2.5 0-4.3-2-4.3-4.9 0-2.8 1.8-4.8 4.3-4.8q0.4 0 0.8 0 0.3 0.1 0.7 0.2 0.3 0.2 0.6 0.4 0.3 0.1 0.6 0.4v-0.9zm-2.3 4.7c0.1-0.6-0.1-1.3-0.5-1.8-0.4-0.5-1-0.7-1.6-0.7-0.7 0-1.3 0.2-1.7 0.7-0.4 0.5-0.6 1.2-0.5 1.8-0.1 0.7 0.1 1.3 0.5 1.8 0.4 0.5 1 0.8 1.7 0.8 0.6 0 1.2-0.3 1.6-0.8 0.4-0.5 0.6-1.1 0.5-1.8z"/><path  d="m290.2 31.3l3-0.1v-5h-2.7v-2.2h5.2v7.2h2.4v2.2h-7.8zm2.7-10.2c0-0.6 0.3-1.1 0.9-1.4 0.5-0.2 1.1-0.1 1.6 0.3 0.4 0.5 0.5 1.1 0.3 1.6-0.2 0.6-0.8 0.9-1.4 0.9q-0.2 0-0.5-0.1-0.3-0.1-0.5-0.3-0.2-0.2-0.3-0.4-0.1-0.3-0.1-0.6z"/><path  d="m301.8 30.6q0.3 0.3 0.6 0.5 0.3 0.1 0.6 0.3 0.3 0.1 0.7 0.2 0.4 0 0.7 0c1.1 0 1.9-0.4 1.9-1.1 0-1.8-5.8-0.1-5.8-3.7 0-1.7 1.7-2.9 4-2.9q0.5 0 1 0 0.5 0.1 1 0.3 0.5 0.1 0.9 0.4 0.5 0.2 0.8 0.5l-1.4 1.6q-0.2-0.2-0.5-0.4-0.2-0.1-0.5-0.2-0.3-0.1-0.6-0.2-0.4 0-0.7 0c-0.9 0-1.5 0.3-1.5 0.9 0 1.6 5.8-0.1 5.8 3.7 0 1.8-1.9 3.1-4.4 3.1q-0.6 0-1.1-0.1-0.6-0.1-1.1-0.3-0.6-0.2-1-0.5-0.5-0.3-0.9-0.7z"/><path class="a" d="m58.3 18l-5.2 15.3h-8.6l-10.1-27.3 9.5 0.1 5 15.4 5-15.4h8.9l5 15.4 4.9-15.4h9.5l-10 27.2h-8.7z"/><path class="b" d="m67.8 21.5l4.9-15.4h9.5l-10 27.2h-8.7z"/><path class="a" d="m96.6 18l-5.2 15.3h-8.6l-10.1-27.3 9.5 0.1 5 15.4 5-15.4h8.9l5 15.4 5-15.4h9.5l-10 27.2h-8.8z"/><path class="c" d="m106.1 21.5l5-15.4h9.5l-10 27.2h-8.8z"/><path class="a" d="m135 18l-5.2 15.3h-8.6l-10.1-27.3 9.5 0.1 5 15.4 4.9-15.4h9l5 15.4 4.9-15.4h9.5l-10 27.2h-8.7z"/><path class="a" d="m163 33.3c-1.8 0-3.3-1.5-3.3-3.3 0-1.9 1.5-3.4 3.3-3.4 1.9 0 3.4 1.5 3.4 3.4 0 1.8-1.5 3.3-3.4 3.3z"/></svg>
