<svg id="Layer_1" data-name="Layer 1" xmlns="http://www.w3.org/2000/svg" xmlns:xlink="http://www.w3.org/1999/xlink" viewBox="0 0 274.16 35.61"><defs><style>.cls-1{fill:#ffc200;}.cls-2{fill:url(#linear-gradient);}.cls-3{fill:url(#linear-gradient-2);}</style><linearGradient id="linear-gradient" x1="25.48" y1="23.93" x2="51.28" y2="11.9" gradientUnits="userSpaceOnUse"><stop offset="0.28" stop-color="#ffc200"/><stop offset="0.42" stop-color="#fbb100"/><stop offset="0.69" stop-color="#f39200"/></linearGradient><linearGradient id="linear-gradient-2" x1="63.78" y1="23.93" x2="89.58" y2="11.9" gradientUnits="userSpaceOnUse"><stop offset="0.28" stop-color="#ffc200"/><stop offset="0.42" stop-color="#fbb100"/><stop offset="0.69" stop-color="#f39200"/></linearGradient></defs><path d="M140.54,4.43l.88,6.53,1-3.75H144L145,11l.89-6.53h2.23l-1.38,9.43h-2.24l-1.31-4.68-1.3,4.68h-2.24l-1.38-9.43Z"/><path d="M156.46,10.71,158,12.39A6.14,6.14,0,0,1,154,14a4.6,4.6,0,0,1-4.73-4.86,4.55,4.55,0,0,1,4.6-4.87c2.6,0,4.58,1.77,4.58,5.64h-6.62A2.25,2.25,0,0,0,154,11.73,3.82,3.82,0,0,0,156.46,10.71ZM151.84,8h3.9a2,2,0,0,0-1.92-1.7A2.13,2.13,0,0,0,151.84,8Z"/><path d="M169,9.15C169,12,167.25,14,164.72,14a4.27,4.27,0,0,1-2.66-1v.86H160V.66h2.43V5.13a3.68,3.68,0,0,1,2.28-.85C167.25,4.28,169,6.3,169,9.15Zm-2.47,0a2.16,2.16,0,1,0-4.26,0,2.16,2.16,0,1,0,4.26,0Z"/><path d="M172.12,11a3.47,3.47,0,0,0,2.62,1c1.09,0,1.87-.43,1.87-1,0-1.87-5.76-.1-5.76-3.77,0-1.7,1.66-2.91,4-2.91a5.94,5.94,0,0,1,3.72,1.26l-1.4,1.57a3.62,3.62,0,0,0-2.32-.83c-.88,0-1.53.38-1.53.91,0,1.64,5.76-.08,5.76,3.77,0,1.79-1.81,3-4.34,3a5.36,5.36,0,0,1-4.11-1.64Z"/><path d="M181.7,11.67h3v-5h-2.77V4.43h5.21v7.24h2.37v2.19H181.7Zm2.72-10.24a1.45,1.45,0,0,1,2.9,0,1.45,1.45,0,0,1-2.9,0Z"/><path d="M200,13.86h-2.45A3.24,3.24,0,0,1,194,10.64v-4h-2.59V4.43H194V1.62h2.43V4.43h3.42V6.62h-3.42v3.85a1.18,1.18,0,0,0,1.23,1.2H200Z"/><path d="M209.28,10.71l1.49,1.68a6.14,6.14,0,0,1-4,1.62A4.6,4.6,0,0,1,202,9.15a4.55,4.55,0,0,1,4.6-4.87c2.6,0,4.58,1.77,4.58,5.64H204.6a2.27,2.27,0,0,0,2.21,1.81A3.82,3.82,0,0,0,209.28,10.71ZM204.66,8h3.9a2,2,0,0,0-1.92-1.7A2.14,2.14,0,0,0,204.66,8Z"/><path d="M214.38,11A3.47,3.47,0,0,0,217,12c1.09,0,1.86-.43,1.86-1,0-1.87-5.75-.1-5.75-3.77,0-1.7,1.66-2.91,4-2.91a6,6,0,0,1,3.72,1.26l-1.4,1.57a3.62,3.62,0,0,0-2.32-.83c-.89,0-1.53.38-1.53.91,0,1.64,5.75-.08,5.75,3.77,0,1.79-1.81,3-4.33,3a5.35,5.35,0,0,1-4.11-1.64Z"/><path d="M147.91,27.12c0,2.85-1.79,4.87-4.32,4.87a3.68,3.68,0,0,1-2.28-.85v4.47h-2.43V22.4h2.05v.87a4.28,4.28,0,0,1,2.66-1C146.12,22.25,147.91,24.27,147.91,27.12Zm-2.47,0a2.16,2.16,0,1,0-4.26,0,2.16,2.16,0,1,0,4.26,0Z"/><path d="M153.89,26.14v3.51h2v2.18h-5.8V29.65h1.41V24.59h-1.41V22.4h3.35v.72a3.72,3.72,0,0,1,2.21-.72h2.56v2.19h-2.73A1.5,1.5,0,0,0,153.89,26.14Z"/><path d="M169,27.12a4.62,4.62,0,1,1-9.22,0,4.62,4.62,0,1,1,9.22,0Zm-6.75,0a2.16,2.16,0,1,0,4.26,0,2.16,2.16,0,1,0-4.26,0Z"/><path d="M175.72,22v.39h3.19v2.19h-3.19l0,5.06h2v2.18h-6.11V29.65h1.68V24.59h-2.57V22.4h2.57v-.54a3.24,3.24,0,0,1,3.49-3.23h2.32v2.19h-2.17A1.16,1.16,0,0,0,175.72,22Z"/><path d="M181.7,29.65h3V24.59h-2.77V22.4h5.21v7.25h2.37v2.18H181.7Zm2.72-10.24a1.45,1.45,0,1,1,1.45,1.43A1.38,1.38,0,0,1,184.42,19.41Z"/><path d="M193.25,29a3.48,3.48,0,0,0,2.62,1c1.09,0,1.87-.44,1.87-1.06,0-1.87-5.76-.1-5.76-3.77,0-1.7,1.66-2.91,4-2.91a5.89,5.89,0,0,1,3.72,1.27l-1.4,1.56a3.62,3.62,0,0,0-2.32-.83c-.88,0-1.53.38-1.53.91,0,1.64,5.76-.08,5.76,3.77,0,1.79-1.81,3.06-4.34,3.06a5.32,5.32,0,0,1-4.11-1.65Z"/><path d="M203.81,29a3.49,3.49,0,0,0,2.62,1c1.1,0,1.87-.44,1.87-1.06,0-1.87-5.75-.1-5.75-3.77,0-1.7,1.66-2.91,4-2.91a5.88,5.88,0,0,1,3.71,1.27l-1.39,1.56a3.64,3.64,0,0,0-2.32-.83c-.89,0-1.53.38-1.53.91,0,1.64,5.75-.08,5.75,3.77,0,1.79-1.81,3.06-4.34,3.06a5.35,5.35,0,0,1-4.11-1.65Z"/><path d="M213.4,29.65h3V24.59h-2.78V22.4h5.21v7.25h2.37v2.18H213.4Zm2.71-10.24a1.46,1.46,0,1,1,1.45,1.43A1.38,1.38,0,0,1,216.11,19.41Z"/><path d="M232.37,27.12a4.62,4.62,0,1,1-9.22,0,4.62,4.62,0,1,1,9.22,0Zm-6.75,0a2.16,2.16,0,1,0,4.26,0,2.16,2.16,0,1,0-4.26,0Z"/><path d="M242.43,26.1v5.73H240V26.27a1.7,1.7,0,1,0-3.39,0v5.56H234.2V22.4h2v.8a4,4,0,0,1,2.49-.95A3.67,3.67,0,0,1,242.43,26.1Z"/><path d="M253.24,22.4v9.43h-2V31a4.33,4.33,0,0,1-2.68,1c-2.55,0-4.32-2-4.32-4.87s1.77-4.87,4.32-4.87a4.46,4.46,0,0,1,2.66,1V22.4Zm-2.3,4.72a2.17,2.17,0,1,0-4.27,0,2.17,2.17,0,1,0,4.27,0Z"/><path d="M255.65,29.65h3V24.59h-2.77V22.4h5.21v7.25h2.37v2.18h-7.77Zm2.72-10.24a1.45,1.45,0,1,1,1.45,1.43A1.38,1.38,0,0,1,258.37,19.41Z"/><path d="M267.2,29a3.48,3.48,0,0,0,2.62,1c1.09,0,1.87-.44,1.87-1.06,0-1.87-5.76-.1-5.76-3.77,0-1.7,1.66-2.91,4-2.91a5.89,5.89,0,0,1,3.72,1.27l-1.4,1.56a3.62,3.62,0,0,0-2.32-.83c-.88,0-1.52.38-1.52.91,0,1.64,5.75-.08,5.75,3.77,0,1.79-1.81,3.06-4.34,3.06a5.33,5.33,0,0,1-4.11-1.65Z"/><path class="cls-1" d="M23.9,16.42,18.7,31.71H10.09L0,4.45H9.51l5,15.49L19.44,4.45h8.93l5,15.49L38.3,4.45h9.51l-10,27.26H29.1Z"/><path class="cls-2" d="M33.36,19.94,38.3,4.45h9.51l-10,27.26H29.1Z"/><path class="cls-1" d="M62.2,16.42,57,31.71H48.39L38.3,4.45h9.51l5,15.49L57.74,4.45h8.93l5,15.49L76.6,4.45h9.51l-10,27.26H67.4Z"/><path class="cls-3" d="M71.66,19.94,76.6,4.45h9.51l-10,27.26H67.4Z"/><path class="cls-1" d="M100.5,16.42,95.3,31.71H86.69L76.6,4.45h9.51l5,15.49L96,4.45H105l5,15.49L114.9,4.45h9.51l-10,27.26h-8.66Z"/><circle class="cls-1" cx="128.55" cy="28.37" r="3.34"/></svg>
